<?xml version="1.0" ?><svg viewBox="0 0 32 32" xmlns="http://www.w3.org/2000/svg"><title/><g data-name="Try on Clothes" id="Try_on_Clothes"><path d="M30.33,21.65l-7-6A.52.52,0,0,0,23,15.5h-.69a2.5,2.5,0,0,1-2.5-2.5v-.16a.49.49,0,0,0-.17-.38L16.5,9.8V8.45A3.49,3.49,0,1,0,12.5,5a.5.5,0,0,0,1,0A2.5,2.5,0,1,1,16,7.5a.5.5,0,0,0-.5.5V9.8l-3.29,2.82A.46.46,0,0,0,12,13a2.5,2.5,0,0,1-2.5,2.5H9a.52.52,0,0,0-.33.12l-7,6a.52.52,0,0,0-.14.55.5.5,0,0,0,.47.33H5.56a3.93,3.93,0,0,0-.06.6V26a.5.5,0,0,0,.5.5H9.5V30a.5.5,0,0,0,.5.5H26a.5.5,0,0,0,.5-.5V22.53H30a.5.5,0,0,0,.47-.33A.52.52,0,0,0,30.33,21.65ZM6.5,25.5V23.13a2.35,2.35,0,0,1,.08-.6H9.5v3Zm3.35-4.65v0a2.41,2.41,0,0,0-.15.33l0,.12a1.33,1.33,0,0,0-.05.19v0H7.06a2.61,2.61,0,0,1,2.07-1h1A2.71,2.71,0,0,0,9.85,20.85ZM25.5,29.5h-15V22.17c0-.05,0-.1,0-.15a2.38,2.38,0,0,1,.05-.26.14.14,0,0,1,0-.06,2.25,2.25,0,0,1,.08-.24.43.43,0,0,0,0-.07,2,2,0,0,1,.12-.19l.06-.08A1,1,0,0,1,11,21l.09-.08.15-.12.12-.06a.8.8,0,0,1,.16-.08.85.85,0,0,1,.17-.06l.13,0a1.84,1.84,0,0,1,.33,0H25.5v9Zm1-8V20a.5.5,0,0,0-.5-.5H9.13a3.62,3.62,0,0,0-3.24,2H3.35l5.88-5h.3A3.5,3.5,0,0,0,13,13.24l3-2.55,2.78,2.38a3.5,3.5,0,0,0,3.5,3.43h.5l5.87,5Z"/></g></svg>